# AST/ASF file generated using VICON BodyLanguage
# -----------------------------------------------
:version 1.10
:name VICON
:units
  mass 1.0
  length 0.45
  angle deg
:documentation
   .ast/.asf automatically generated from VICON data using
   VICON BodyBuilder and BodyLanguage model FoxedUp or BRILLIANT.MOD
:root
   order TX TY TZ RX RY RZ
   axis XYZ
   position 0 0 0  
   orientation 0 0 0 
:bonedata
  begin
     id 1 
     name lhipjoint
     direction 0.567725 -0.736092 0.368589 
     length 2.42353 
     axis 0 0 0  XYZ
  end
  begin
     id 2 
     name lfemur
     direction 0.34202 -0.939693 0  
     length 7.24894  
     axis 0 0 20  XYZ
    dof rx ry rz
    limits (-160.0 20.0)
           (-70.0 70.0)
           (-60.0 70.0)
  end
  begin
     id 3 
     name ltibia
     direction 0.34202 -0.939693 0   
     length 7.6997   
     axis 0 0 20   XYZ
    dof rx
    limits (-10.0 170.0)
  end
  begin
     id 4 
     name lfoot
     direction 0.100767 -0.276854 0.955614   
     length 2.37556   
     axis -90 7.62852e-016 20   XYZ
    dof rx rz
    limits (-45.0 90.0)
           (-70.0 20.0)
  end
  begin
     id 5 
     name ltoes
     direction 1.53592e-011 -4.21894e-011 1   
     length 1.18363   
     axis -90 7.62852e-016 20   XYZ
    dof rx
    limits (-90.0 20.0)
  end
  begin
     id 6 
     name rhipjoint
     direction -0.556459 -0.742938 0.372017   
     length 2.4012  
     axis 0 0 0  XYZ 
  end
  begin
     id 7 
     name rfemur
     direction -0.34202 -0.939693 0   
     length 7.5119   
     axis 0 0 -20   XYZ
    dof rx ry rz
    limits (-160.0 20.0)
           (-70.0 70.0)
           (-70.0 60.0)
  end
  begin
     id 8 
     name rtibia
     direction -0.34202 -0.939693 0   
     length 7.50155   
     axis 0 0 -20   XYZ
    dof rx
    limits (-10.0 170.0)
 end
 begin
     id 9 
     name rfoot
     direction -0.118427 -0.325376 0.938139   
     length 2.32487  
     axis -90 -7.62852e-016 -20   XYZ
    dof rx rz
    limits (-45.0 90.0)
           (-20.0 70.0)
  end
  begin
     id 10 
     name rtoes
     direction -1.53525e-011 -4.21868e-011 1   
     length 1.15233   
     axis -90 -7.62852e-016 -20   XYZ
    dof rx
    limits (-90.0 20.0)
  end
  begin
     id 11 
     name lowerback
     direction 0.0287568 0.999577 -0.00434502   
     length 2.15243   
     axis 0 0 0   XYZ
    dof rx ry rz
    limits (-20.0 45.0)
           (-30.0 30.0)
           (-30.0 30.0)
  end
  begin
     id 12 
     name upperback
     direction 0.0294009 0.99956 0.00404628   
     length 2.15427   
     axis 0 0 0   XYZ
    dof rx ry rz
    limits (-20.0 45.0)
           (-30.0 30.0)
           (-30.0 30.0)
  end
  begin
     id 13 
     name thorax
     direction 0.0151014 0.999868 0.0059419   
     length 2.14898   
     axis 0 0 0   XYZ
    dof rx ry rz
    limits (-20.0 45.0)
           (-30.0 30.0)
           (-30.0 30.0)
  end
  begin
     id 14 
     name lowerneck
     direction -0.0249197 0.989906 0.139515   
     length 1.6861   
     axis 0 0 0   XYZ
    dof rx ry rz
    limits (-20.0 45.0)
           (-30.0 30.0)
           (-30.0 30.0)
  end
  begin
     id 15 
     name upperneck
     direction 0.0438463 0.988795 -0.142693   
     length 1.71276   
     axis 0 0 0   XYZ
    dof rx ry rz
    limits (-20.0 45.0)
           (-30.0 30.0)
           (-30.0 30.0)
  end
  begin
     id 16
     name head
     direction 0.0148499 0.997845 -0.0639186  
     length 1.7209  
     axis 0 0 0   XYZ
    dof rx ry rz
    limits (-20.0 45.0)
           (-30.0 30.0)
           (-30.0 30.0)
  end
  begin
     id 17 
     name lclavicle
     direction 0.940298 0.323464 -0.105876  
     length 3.9048  
     axis 0 0 0   XYZ
    dof ry rz
    limits (-20.0 10.0)
           (0.0 20.0)
  end
  begin
     id 18 
     name lhumerus
     direction 1 -4.48954e-011 -4.9675e-028   
     length 4.6851   
     axis 180 -30 -90   XYZ
    dof rx ry rz
    limits (-60.0 90.0)
           (-90.0 90.0)
           (-90.0 90.0)
  end
  begin
     id 19
     name lradius
     direction 1 -4.48992e-011 -1.03359e-026   
     length 3.39626   
     axis 180 -30 -90   XYZ
    dof rx
    limits (-10.0 170.0)
  end
  begin
     id 20
     name lwrist
     direction 1 -4.48906e-011 -1.67336e-026   
     length 1.69813   
     axis 9.90442e-015 90 90   XYZ
    dof ry
    limits (-180.0 0.0)
 end
  begin
     id 21 
     name lhand
     direction 1 -4.49006e-011 -3.34673e-026   
     length 0.486078   
     axis 2.1355e-014 90 90   XYZ
    dof rx rz
    limits (-90.0 90.0)
           (-45.0 45.0)
  end
  begin
     id 22 
     name lfingers
     direction 1 -4.48992e-011 -6.69345e-026   
     length 0.391889   
     axis 4.27099e-014 90 90   XYZ
    dof rx
    limits (0.0 90.0)
  end
  begin
     id 23
     name lthumb
     direction 0.707107 -6.34926e-011 0.707107   
     length 0.562676   
     axis -90 45 2.85299e-015   XYZ
    dof rx rz
    limits (-45.0 45.0)
           (-45.0 45.0)
  end
  begin
     id 24 
     name rclavicle
     direction -0.882459 0.414895 -0.221648   
     length 3.44646  
     axis 0 0 0   XYZ 
    dof ry rz
    limits (-10.0 20.0)
           (-20.0 0.0)
  end
  begin
     id 25 
     name rhumerus
     direction -1 -4.48962e-011 -2.37984e-027  
     length 5.55576   
     axis 180 30 90   XYZ
    dof rx ry rz
    limits (-90.0 60.0)
           (-90.0 90.0)
           (-90.0 90.0)
  end
  begin
     id 26 
     name rradius
     direction -1 -4.48982e-011 -6.86791e-027   
     length 3.32774   
     axis 180 30 90   XYZ
    dof rx
    limits (-10.0 170.0)
  end
  begin
     id 27 
     name rwrist
     direction -1 -4.48961e-011 -1.67336e-026   
     length 1.66387   
     axis 9.90442e-015 -90 -90   XYZ
    dof ry
    limits (-180.0 0.0)
  end
  begin
     id 28
     name rhand
     direction -1 -4.4897e-011 -3.34673e-026   
     length 0.507628   
     axis 2.1355e-014 -90 -90   XYZ
    dof rx rz
    limits (-90.0 90.0)
           (-45.0 45.0)
  end
  begin
     id 29
     name rfingers
     direction -1 -4.48854e-011 -6.69345e-026   
     length 0.409263   
     axis 4.27099e-014 -90 -90   XYZ
    dof rx
    limits (0.0 90.0)
  end
  begin
     id 30
     name rthumb
     direction -0.707107 -6.34913e-011 0.707107   
     length 0.587622   
     axis -90 -45 -2.85299e-015   XYZ
    dof rx rz
    limits (-45.0 45.0)
           (-45.0 45.0)
  end
:hierarchy
  begin
    root lhipjoint rhipjoint lowerback
    lhipjoint lfemur
    lfemur ltibia
    ltibia lfoot
    lfoot ltoes
    rhipjoint rfemur
    rfemur rtibia
    rtibia rfoot
    rfoot rtoes
    lowerback upperback
    upperback thorax
    thorax lowerneck lclavicle rclavicle
    lowerneck upperneck
    upperneck head
    lclavicle lhumerus
    lhumerus lradius
    lradius lwrist
    lwrist lhand lthumb
    lhand lfingers
    rclavicle rhumerus
    rhumerus rradius
    rradius rwrist
    rwrist rhand rthumb
    rhand rfingers
  end

#!OML:ASF E:\motion texture\Top Level 1\Subject 1\Session 1\male.ASF
:FULLY-SPECIFIED
:DEGREES
25
root 37.5222 17.8176 4.67409 142.782 -85.8026 -133.278
lowerback 28.7692 23.9908 17.7963
upperback 11.2664 40.7258 14.2784
thorax -176.915 112.449 -4.14821
lowerneck 15.5375 10.7441 4.88857
upperneck -6.00917 58.6444 -6.17691
head 168.211 118.462 15.1529
rclavicle -4.92986e-014 3.93594e-014
rhumerus 57.5694 -8.45036 92.2018
rradius 37.6372
rwrist -35.9288
rhand -7.54962 -55.6547
rfingers 7.12502
rthumb 18.3422 -84.8099
lclavicle -4.92986e-014 3.93594e-014
lhumerus 55.8316 7.58703 -87.1969
lradius 40.0872
lwrist 23.2528
lhand -1.93721 47.8214
lfingers 7.12502
lthumb 23.7336 76.3758
rfemur -15.2861 3.43058 25.5242
rtibia 20.5365
rfoot -10.8307 -11.4513
rtoes 15.1485
lfemur -11.4572 -2.76707 -13.6082
ltibia 12.9836
lfoot -9.07683 8.68001
ltoes 1.15036
26
root 37.5101 17.8154 4.66322 142.746 -85.8305 -133.212
lowerback 28.7028 24.0018 17.8518
upperback 11.2049 40.6645 14.2478
thorax -176.96 112.411 -4.17958
lowerneck 15.5347 10.7826 4.87645
upperneck -6.02531 58.7647 -6.194
head 168.185 118.187 15.0953
rclavicle -3.97569e-014 -1.70955e-014
rhumerus 57.4603 -8.22997 92.6752
rradius 37.7143
rwrist -36.2707
rhand -7.56052 -56.0881
rfingers 7.12502
rthumb 18.3317 -85.2443
lclavicle -3.97569e-014 -1.70955e-014
lhumerus 55.8078 7.58217 -87.1051
lradius 40.0489
lwrist 23.2478
lhand -1.95959 48.0546
lfingers 7.12502
lthumb 23.7122 76.6118
rfemur -15.3165 3.38674 25.5519
rtibia 20.6446
rfoot -10.9825 -11.4287
rtoes 15.3362
lfemur -11.4722 -2.73068 -13.5875
ltibia 13.0302
lfoot -9.14962 8.62824
ltoes 0.950567
27
root 37.4975 17.8131 4.6506 143.137 -85.9 -133.566
lowerback 28.7425 23.9762 17.8272
upperback 11.2421 40.7021 14.2707
thorax -176.925 112.331 -4.15304
lowerneck 15.601 10.8592 4.88678
upperneck -6.12808 59.0663 -6.30511
head 168.204 117.718 15.2091
rclavicle 7.71285e-014 -2.5842e-014
rhumerus 57.5055 -7.94339 93.141
rradius 37.8453
rwrist -36.7976
rhand -7.97759 -56.8012
rfingers 7.12502
rthumb 17.9304 -85.9946
lclavicle 7.71285e-014 -2.5842e-014
lhumerus 55.8878 7.54536 -87.14
lradius 40.0283
lwrist 23.2727
lhand -2.11041 48.2691
lfingers 7.12502
lthumb 23.5675 76.845
rfemur -15.3379 3.3493 25.526
rtibia 20.6722
rfoot -11.0192 -11.4594
rtoes 15.2727
lfemur -11.503 -2.66136 -13.6197
ltibia 13.1043
lfoot -9.22625 8.53768
ltoes 0.844247
28
root 37.4828 17.8111 4.63621 143.017 -85.9413 -133.418
lowerback 28.5723 24.0046 17.7268
upperback 11.1598 40.5917 14.1592
thorax -176.928 112.531 -4.11579
lowerneck 15.5581 10.8705 4.89753
upperneck -6.07457 58.9743 -6.25319
head 168.235 117.718 15.1538
rclavicle -6.24184e-014 1.31198e-014
rhumerus 57.3421 -7.70842 93.6175
rradius 37.8963
rwrist -37.1468
rhand -8.14018 -57.345
rfingers 7.12502
rthumb 17.774 -86.5527
lclavicle -6.24184e-014 1.31198e-014
lhumerus 55.7731 7.45228 -87.2542
lradius 39.9452
lwrist 23.2565
lhand -2.36615 48.4496
lfingers 7.12502
lthumb 23.3222 77.0568
rfemur -15.3336 3.36754 25.5631
rtibia 20.7188
rfoot -11.0918 -11.5294
rtoes 15.2647
lfemur -11.5013 -2.71015 -13.5692
ltibia 13.1112
lfoot -9.30175 8.51045
ltoes 1.29812
29
root 37.4632 17.8122 4.61659 139.792 -86.2097 -130.248
lowerback 78.7654 6.35004 32.5369
upperback 48.0057 65.8966 57.4526
thorax -153.092 77.69 9.49926
lowerneck 34.8832 25.4549 19.1704
upperneck -70.0164 65.127 -85.6536
head 74.7733 59.2984 -21.3262
rclavicle -5.00937e-014 -6.71209e-015
rhumerus 105.285 -8.81101 87.3236
rradius 41.3527
rwrist -38.5287
rhand -8.22265 -57.7283
rfingers 7.12502
rthumb 17.6946 -86.9432
lclavicle -5.00937e-014 -6.71209e-015
lhumerus 102.769 3.52632 -83.2217
lradius 43.7428
lwrist 24.4108
lhand -2.36263 48.2499
lfingers 7.12502
lthumb 23.3255 76.8567
rfemur -15.0811 3.31003 25.6055
rtibia 20.5626
rfoot -11.1682 -11.8163
rtoes 15.38
lfemur -11.4814 -2.77486 -13.5144
ltibia 13.2413
lfoot -9.44213 8.20393
ltoes 0.921911
